<?xml version="1.0" encoding="utf-8" ?>
<svg xmlns="http://www.w3.org/2000/svg" xmlns:xlink="http://www.w3.org/1999/xlink" width="64" height="64">
	<rect fill="#FD9A02" width="64" height="64"/>
	<path fill="white" d="M26.9297 35.0781L31.4141 36.5Q30.3828 40.25 27.9844 42.0703Q25.5859 43.8906 21.8984 43.8906Q17.3359 43.8906 14.3984 40.7734Q11.4609 37.6562 11.4609 32.25Q11.4609 26.5312 14.4141 23.3672Q17.3672 20.2031 22.1797 20.2031Q26.3828 20.2031 29.0078 22.6875Q30.5703 24.1562 31.3516 26.9062L26.7734 28Q26.3672 26.2188 25.0781 25.1875Q23.7891 24.1562 21.9453 24.1562Q19.3984 24.1562 17.8125 25.9844Q16.2266 27.8125 16.2266 31.9062Q16.2266 36.25 17.7891 38.0938Q19.3516 39.9375 21.8516 39.9375Q23.6953 39.9375 25.0234 38.7656Q26.3516 37.5938 26.9297 35.0781ZM35.3828 43.5L35.3828 20.5938L42.8047 20.5938Q47.0234 20.5938 48.3047 20.9375Q50.2734 21.4531 51.6016 23.1797Q52.9297 24.9062 52.9297 27.6406Q52.9297 29.75 52.1641 31.1875Q51.3984 32.625 50.2188 33.4453Q49.0391 34.2656 47.8203 34.5312Q46.1641 34.8594 43.0234 34.8594L40.0078 34.8594L40.0078 43.5L35.3828 43.5ZM40.0078 24.4688L40.0078 30.9688L42.5391 30.9688Q45.2734 30.9688 46.1953 30.6094Q47.1172 30.25 47.6406 29.4844Q48.1641 28.7188 48.1641 27.7031Q48.1641 26.4531 47.4297 25.6406Q46.6953 24.8281 45.5703 24.625Q44.7422 24.4688 42.2422 24.4688L40.0078 24.4688Z"/>
</svg>
