<svg width="250" height="100" viewBox="0 0 250 100" fill="none" xmlns="http://www.w3.org/2000/svg">
<path d="M132.304 26.667C134.871 26.667 136.952 28.7558 136.952 31.333C136.952 33.9103 134.871 36 132.304 36H174.8C177.367 36 179.448 38.0897 179.448 40.667C179.448 43.2442 177.367 45.333 174.8 45.333H189.408C191.975 45.3331 194.056 47.4227 194.056 50C194.056 52.5773 191.975 54.6669 189.408 54.667H176.792C174.225 54.667 172.144 56.7558 172.144 59.333C172.144 61.9103 174.225 64 176.792 64H180.777C183.343 64.0002 185.424 66.0898 185.424 68.667C185.424 71.2441 183.343 73.3328 180.777 73.333H146.248C145.906 73.333 145.573 73.2959 145.252 73.2256C144.931 73.2959 144.598 73.333 144.256 73.333H83.8322C81.2653 73.333 79.184 71.2442 79.1838 68.667C79.1838 66.0897 81.2652 64 83.8322 64H57.9357C55.3689 63.9998 53.2883 61.9102 53.2883 59.333C53.2884 56.756 55.369 54.6672 57.9357 54.667H84.4963C87.0633 54.6669 89.1437 52.5773 89.1437 50C89.1437 47.4227 87.0633 45.3331 84.4963 45.333H67.8967C65.3298 45.333 63.2484 43.2442 63.2482 40.667C63.2482 38.0897 65.3296 36 67.8967 36H94.4562C91.8892 36 89.8078 33.9103 89.8078 31.333C89.808 28.7558 91.8893 26.667 94.4562 26.667H132.304ZM192.065 64C194.631 64.0002 196.712 66.0898 196.712 68.667C196.712 71.244 194.631 73.3328 192.065 73.333C189.498 73.333 187.416 71.2442 187.416 68.667C187.416 66.0897 189.498 64 192.065 64Z" fill="#E9F9F5"/>
<path d="M138.014 24.5807C55.4592 24.5807 129.997 24.5807 97.0001 24.5807C97.8125 24.5805 98.6171 24.7404 99.3678 25.0512C100.118 25.3621 100.8 25.8177 101.375 26.3922C101.95 26.9667 102.405 27.6488 102.716 28.3995C103.027 29.1502 103.187 29.9547 103.186 30.7672C103.186 87.9715 103.162 70.7995 103.162 75.7749C103.162 76.5873 103.322 77.3917 103.633 78.1423C103.944 78.8929 104.4 79.5749 104.974 80.1493C105.549 80.7238 106.231 81.1795 106.981 81.4904C107.732 81.8013 108.536 81.9613 109.349 81.9613C110.161 81.9613 110.966 81.8013 111.716 81.4904C112.467 81.1795 113.149 80.7238 113.723 80.1493C114.298 79.5749 114.753 78.8929 115.064 78.1423C115.375 77.3917 115.535 76.5873 115.535 75.7749V73.8669C115.551 73.8588 115.302 73.8669 144.2 73.8669V30.772C144.201 29.9592 144.041 29.1542 143.731 28.4031C143.42 27.652 142.965 26.9694 142.39 26.3944C141.815 25.8195 141.133 25.3633 140.382 25.0521C139.631 24.7409 138.827 24.5807 138.014 24.5807Z" fill="#F5F5F5"/>
<path d="M90.8185 32.6801V30.7721C90.8185 29.1313 91.4703 27.5578 92.6305 26.3976C93.7907 25.2374 95.3642 24.5856 97.005 24.5856C98.6457 24.5856 100.219 25.2374 101.379 26.3976C102.54 27.5578 103.191 29.1313 103.191 30.7721V32.6801H90.8185Z" fill="#C4E5D6"/>
<path d="M115.538 73.8701V75.7781C115.538 76.5906 115.379 77.3951 115.068 78.1458C114.757 78.8965 114.301 79.5786 113.727 80.1531C113.152 80.7276 112.47 81.1832 111.719 81.4941C110.969 81.8049 110.164 81.9648 109.352 81.9646C150.178 81.9646 150.27 81.9807 150.27 81.9646C151.911 81.9646 153.484 81.3128 154.645 80.1526C155.805 78.9924 156.457 77.4189 156.457 75.7781V73.8701H115.538Z" fill="#C4E5D6"/>
<path d="M103.676 33.1651H90.3333V30.772C90.3333 29.0026 91.0362 27.3057 92.2874 26.0546C93.5385 24.8034 95.2354 24.1005 97.0048 24.1005C98.7742 24.1005 100.471 24.8034 101.722 26.0546C102.973 27.3057 103.676 29.0026 103.676 30.772V33.1651ZM91.3035 32.195H102.706V30.772C102.706 29.2599 102.105 27.8098 101.036 26.7406C99.9671 25.6714 98.5169 25.0707 97.0048 25.0707C95.4927 25.0707 94.0426 25.6714 92.9734 26.7406C91.9042 27.8098 91.3035 29.2599 91.3035 30.772V32.195ZM109.353 82.4496V81.4794C110.865 81.4773 112.313 80.8759 113.382 79.8071C114.45 78.7383 115.051 77.2894 115.053 75.7781V73.385H156.943V75.7781C156.941 77.5468 156.238 79.2425 154.987 80.4932C153.736 81.7439 152.04 82.4475 150.272 82.4496H109.353ZM112.815 81.4794H150.272C151.783 81.4777 153.232 80.8765 154.301 79.8077C155.37 78.7388 155.971 77.2897 155.973 75.7781V74.3552H116.023V75.7781C116.023 76.9239 115.728 78.0504 115.166 79.049C114.604 80.0476 113.795 80.8846 112.815 81.4794Z" fill="#5E6175"/>
<path d="M109.353 82.4496C107.585 82.4475 105.889 81.7439 104.638 80.4932C103.388 79.2426 102.684 77.5469 102.682 75.7781C102.682 75.762 102.706 75.7523 102.706 30.7705C102.707 30.0214 102.56 29.2794 102.274 28.5871C101.988 27.8949 101.568 27.2658 101.038 26.736C100.509 26.2061 99.88 25.7859 99.1879 25.4993C98.4958 25.2127 97.7539 25.0654 97.0048 25.0659V24.0957C140.48 24.0957 138.499 24.0957 138.499 24.1183C140.179 24.2424 141.751 24.997 142.898 26.231C144.045 27.465 144.684 29.0871 144.685 30.7721V74.3552H116.023V75.7781C116.021 77.5466 115.318 79.242 114.067 80.4927C112.817 81.7433 111.122 82.4471 109.353 82.4496ZM103.652 75.7781C103.652 76.5268 103.8 77.2682 104.086 77.9599C104.373 78.6517 104.793 79.2802 105.322 79.8096C105.851 80.339 106.48 80.759 107.172 81.0455C107.863 81.332 108.605 81.4795 109.353 81.4795C110.102 81.4795 110.844 81.332 111.535 81.0455C112.227 80.759 112.855 80.339 113.385 79.8096C113.914 79.2802 114.334 78.6517 114.621 77.9599C114.907 77.2682 115.055 76.5268 115.055 75.7781V73.5338C115.524 73.3592 115.423 73.385 115.54 73.385H143.72V30.7721C143.72 29.2587 143.119 27.8073 142.049 26.7372C140.978 25.6671 139.527 25.0659 138.014 25.0659H100.475C101.453 25.6609 102.262 26.4982 102.823 27.4968C103.384 28.4955 103.678 29.6219 103.676 30.7672C103.676 87.9327 103.652 70.6799 103.652 75.7781Z" fill="#5E6175"/>
<path d="M137.632 55.1313H115.727V57.1703H137.632V55.1313Z" fill="#DEE1EC"/>
<path d="M121.789 60.4592H109.669V62.4981H121.789V60.4592Z" fill="#DEE1EC"/>
<path d="M137.634 60.4592H125.513V62.4981H137.634V60.4592Z" fill="#DEE1EC"/>
<path d="M121.789 65.7886H109.669V67.8276H121.789V65.7886Z" fill="#DEE1EC"/>
<path style="mix-blend-mode:multiply" d="M144.973 27.1897V39.8254C141.006 39.7751 137.219 38.191 134.43 35.4156C131.641 32.6402 130.076 28.8967 130.071 24.9947C130.071 24.971 130.071 24.9456 130.071 24.9236H142.667C142.97 24.9234 143.27 24.9818 143.55 25.0956C143.829 25.2094 144.083 25.3763 144.298 25.5867C144.512 25.7972 144.682 26.0471 144.798 26.3221C144.913 26.5972 144.973 26.892 144.973 27.1897Z" fill="url(#paint0_linear_2295_12248)"/>
<path d="M144.242 37.0685C150.661 37.0685 155.865 31.8649 155.865 25.4459C155.865 19.0269 150.661 13.8233 144.242 13.8233C137.823 13.8233 132.62 19.0269 132.62 25.4459C132.62 31.8649 137.823 37.0685 144.242 37.0685Z" fill="#F5F5F5"/>
<path d="M144.242 37.5487C141.847 37.5487 139.506 36.8385 137.515 35.5079C135.524 34.1773 133.972 32.286 133.056 30.0733C132.139 27.8607 131.9 25.426 132.367 23.0772C132.835 20.7284 133.989 18.571 135.682 16.8779C137.376 15.1848 139.534 14.032 141.883 13.5654C144.232 13.0988 146.667 13.3392 148.879 14.2564C151.091 15.1735 152.982 16.7262 154.312 18.7179C155.641 20.7096 156.351 23.051 156.35 25.4459C156.343 28.6546 155.066 31.73 152.796 33.9985C150.527 36.267 147.451 37.5436 144.242 37.5487ZM144.242 14.3051C142.039 14.3051 139.886 14.9583 138.055 16.1819C136.223 17.4056 134.796 19.1448 133.953 21.1798C133.11 23.2147 132.889 25.4539 133.318 27.6143C133.748 29.7747 134.808 31.7592 136.366 33.3169C137.923 34.8747 139.907 35.9357 142.067 36.3658C144.228 36.7959 146.467 36.5758 148.502 35.7333C150.537 34.8908 152.277 33.4638 153.501 31.6327C154.725 29.8016 155.379 27.6485 155.38 25.4459C155.375 22.4936 154.199 19.6637 152.112 17.5761C150.024 15.4886 147.194 14.3135 144.242 14.3084V14.3051Z" fill="#5E6175"/>
<path d="M142.743 29.8731L138.652 25.7822L140.061 24.3739L142.743 27.0564L148.782 21.0171L150.191 22.4255L142.743 29.8731Z" fill="#C87610"/>
<path d="M120.281 47.4385C124.19 46.1058 126.278 41.857 124.945 37.9487C123.612 34.0404 119.363 31.9526 115.455 33.2853C111.547 34.6181 109.459 38.8668 110.792 42.7752C112.124 46.6835 116.373 48.7713 120.281 47.4385Z" fill="#F5F5F5"/>
<path d="M109.342 50.536L109.09 50.7866L108.586 50.2902L109.016 49.8618C109.16 50.0677 109.27 50.2953 109.342 50.536Z" fill="#5E6175"/>
<path d="M109.02 49.8585L108.586 50.2902L109.085 50.7899L109.337 50.5393C109.269 50.2969 109.162 50.0671 109.02 49.8585Z" fill="#DEE1EC"/>
<path style="mix-blend-mode:multiply" d="M128.375 41.5345C128.165 43.4145 127.455 45.2038 126.318 46.7157C125.181 48.2275 123.659 49.4066 121.911 50.1299C120.163 50.8532 118.253 51.0942 116.38 50.8277C114.507 50.5613 112.74 49.7972 111.263 48.6151L109.342 50.536C109.47 50.9643 109.48 51.4194 109.37 51.8527C109.26 52.286 109.035 52.6815 108.718 52.997L103.19 58.5253V60.8667L108.718 55.3383C109.034 55.0222 109.259 54.6268 109.368 54.1936C109.478 53.7605 109.469 53.3058 109.342 52.8774L111.263 50.9564C112.896 52.2629 114.879 53.0559 116.963 53.2351C119.046 53.4143 121.136 52.9716 122.967 51.963C124.799 50.9545 126.291 49.4254 127.253 47.5691C128.216 45.7128 128.606 43.6127 128.375 41.5345Z" fill="url(#paint1_linear_2295_12248)"/>
<path d="M97.3881 60.8197C97.1126 60.5444 96.8941 60.2174 96.745 59.8576C96.596 59.4977 96.5192 59.112 96.5192 58.7226C96.5192 58.3331 96.596 57.9474 96.745 57.5875C96.8941 57.2277 97.1126 56.9008 97.3881 56.6254L104.866 49.147C105.142 48.8716 105.469 48.6531 105.829 48.5041C106.188 48.355 106.574 48.2783 106.964 48.2783C107.353 48.2783 107.739 48.355 108.099 48.5041C108.458 48.6531 108.785 48.8716 109.061 49.147C109.336 49.4224 109.555 49.7494 109.704 50.1092C109.853 50.469 109.929 50.8547 109.929 51.2442C109.929 51.6337 109.853 52.0193 109.704 52.3792C109.555 52.739 109.336 53.066 109.061 53.3414L101.582 60.8197C101.026 61.3748 100.271 61.6866 99.4852 61.6866C98.699 61.6866 97.9448 61.3748 97.3881 60.8197ZM106.968 49.2489C106.707 49.2485 106.447 49.2999 106.205 49.4001C105.963 49.5003 105.743 49.6473 105.558 49.8326L98.0753 57.311C97.701 57.6854 97.4908 58.1932 97.4908 58.7226C97.4908 59.252 97.701 59.7597 98.0753 60.1341C98.4497 60.5079 98.957 60.7178 99.486 60.7178C100.015 60.7178 100.522 60.5079 100.897 60.1341L108.375 52.6558C108.653 52.3767 108.843 52.0216 108.92 51.635C108.997 51.2485 108.957 50.8479 108.807 50.4836C108.656 50.1194 108.402 49.8078 108.075 49.5881C107.747 49.3683 107.363 49.2503 106.968 49.2489Z" fill="#5E6175"/>
<path d="M125.345 47.8373C126.788 46.3947 127.783 44.5656 128.209 42.5705C128.635 40.5754 128.475 38.4995 127.748 36.5933C127.021 34.687 125.758 33.0318 124.112 31.8272C122.465 30.6227 120.505 29.9202 118.468 29.8046C116.432 29.689 114.405 30.1651 112.632 31.1756C110.86 32.186 109.418 33.6877 108.48 35.4994C107.542 37.3111 107.148 39.3555 107.346 41.3861C107.544 43.4166 108.325 45.3466 109.595 46.9431L107.422 49.1163L109.092 50.7866L111.264 48.6151C113.295 50.241 115.855 51.0606 118.453 50.9171C121.051 50.7736 123.505 49.6771 125.345 47.8373ZM112.581 35.0748C113.627 34.0294 114.959 33.3174 116.409 33.029C117.859 32.7406 119.362 32.8887 120.728 33.4544C122.094 34.0202 123.261 34.9783 124.082 36.2076C124.904 37.4369 125.342 38.8821 125.342 40.3606C125.342 41.839 124.904 43.2842 124.082 44.5135C123.261 45.7428 122.094 46.7009 120.728 47.2667C119.362 47.8324 117.859 47.9805 116.409 47.6921C114.959 47.4037 113.627 46.6917 112.581 45.6463C111.18 44.2443 110.393 42.343 110.393 40.3606C110.393 38.3781 111.18 36.4768 112.581 35.0748Z" fill="#DEE1EC"/>
<path d="M109.092 51.4722L106.736 49.1163L108.951 46.9011C107.701 45.1948 106.967 43.1657 106.835 41.0546C106.703 38.9434 107.18 36.8388 108.208 34.9903C109.236 33.1418 110.773 31.627 112.636 30.6255C114.499 29.624 116.611 29.1779 118.72 29.3401C120.829 29.5023 122.847 30.266 124.535 31.5405C126.223 32.8151 127.51 34.5471 128.244 36.5311C128.977 38.515 129.126 40.6678 128.673 42.734C128.22 44.8001 127.184 46.693 125.688 48.1882C123.818 50.0652 121.336 51.2072 118.694 51.4055C116.052 51.6038 113.426 50.8452 111.297 49.2683L109.092 51.4722ZM111.228 47.965L111.566 48.2367C113.502 49.7923 115.946 50.5771 118.426 50.4401C120.907 50.3031 123.249 49.254 125.002 47.4945C126.379 46.1182 127.328 44.373 127.735 42.4694C128.142 40.5659 127.989 38.5852 127.296 36.7664C126.602 34.9476 125.397 33.3682 123.826 32.2189C122.255 31.0695 120.385 30.3992 118.442 30.2888C116.498 30.1784 114.564 30.6326 112.873 31.5966C111.182 32.5607 109.806 33.9934 108.911 35.722C108.016 37.4505 107.64 39.4012 107.829 41.3386C108.018 43.276 108.763 45.1174 109.975 46.6408L110.245 46.9787L108.101 49.1163L109.085 50.101L111.228 47.965ZM117.869 48.3224C116.026 48.3231 114.24 47.685 112.816 46.5167C111.391 45.3483 110.415 43.7221 110.055 41.9152C109.695 40.1082 109.973 38.2323 110.841 36.6072C111.709 34.982 113.114 33.7081 114.816 33.0025C116.518 32.2969 118.412 32.2034 120.175 32.7378C121.938 33.2722 123.462 34.4015 124.486 35.9333C125.51 37.465 125.971 39.3045 125.791 41.1381C125.61 42.9717 124.8 44.6861 123.497 45.9891C122.758 46.7287 121.881 47.3154 120.915 47.7157C119.949 48.1161 118.914 48.3222 117.869 48.3224ZM117.869 33.3721C116.486 33.3721 115.134 33.7821 113.985 34.5503C112.835 35.3184 111.939 36.4102 111.41 37.6876C110.881 38.9649 110.743 40.3705 111.013 41.7265C111.283 43.0824 111.949 44.3279 112.926 45.3055C113.904 46.283 115.15 46.9486 116.506 47.2181C117.862 47.4876 119.267 47.349 120.545 46.8197C121.822 46.2904 122.913 45.3942 123.681 44.2445C124.449 43.0947 124.859 41.7431 124.859 40.3606C124.859 39.4425 124.679 38.5333 124.328 37.6851C123.977 36.8368 123.462 36.0661 122.813 35.417C122.163 34.7679 121.393 34.2532 120.544 33.9023C119.696 33.5514 118.787 33.3713 117.869 33.3721Z" fill="#5E6175"/>
<path d="M97.7306 60.477C97.266 60.0113 97.005 59.3804 97.005 58.7226C97.005 58.0648 97.266 57.4338 97.7306 56.9682L105.209 49.4898C105.439 49.2594 105.713 49.0767 106.014 48.952C106.315 48.8273 106.638 48.7631 106.963 48.7631C107.289 48.7631 107.612 48.8273 107.913 48.952C108.214 49.0767 108.487 49.2594 108.718 49.4898C108.948 49.7202 109.131 49.9937 109.256 50.2947C109.38 50.5957 109.444 50.9184 109.444 51.2442C109.444 51.57 109.38 51.8926 109.256 52.1937C109.131 52.4947 108.948 52.7682 108.718 52.9986L101.239 60.477C100.774 60.942 100.143 61.2033 99.485 61.2033C98.8271 61.2033 98.1961 60.942 97.7306 60.477Z" fill="#E1830E"/>
<path d="M101.483 81.7017L99.3389 83.8455L100.025 84.5315L102.169 82.3877L101.483 81.7017Z" fill="#009B71"/>
<path d="M104.811 83.6349H103.841V86.6667H104.811V83.6349Z" fill="#009B71"/>
<path d="M100.155 79.2433H97.123V80.2135H100.155V79.2433Z" fill="#009B71"/>
<path d="M159.393 40.3962C159.09 40.3959 158.789 40.4555 158.509 40.5715C158.229 40.6874 157.974 40.8575 157.76 41.072C157.545 41.2864 157.375 41.5411 157.259 41.8213C157.143 42.1015 157.084 42.4019 157.084 42.7052C157.084 42.0928 156.841 41.5055 156.408 41.0724C155.975 40.6394 155.387 40.3962 154.775 40.3962C155.387 40.3962 155.975 40.1529 156.408 39.7199C156.841 39.2868 157.084 38.6995 157.084 38.0872C157.084 38.6995 157.327 39.2868 157.76 39.7199C158.193 40.1529 158.781 40.3962 159.393 40.3962ZM156.943 52.9695C155.691 52.9695 154.489 53.4671 153.604 54.3529C152.718 55.2386 152.22 56.44 152.22 57.6926C152.22 56.44 151.723 55.2386 150.837 54.3529C149.951 53.4671 148.75 52.9695 147.497 52.9695C148.75 52.9691 149.951 52.4711 150.837 51.5851C151.723 50.6991 152.22 49.4976 152.22 48.2448C152.22 49.4976 152.718 50.6991 153.604 51.5851C154.489 52.4711 155.691 52.9691 156.943 52.9695Z" fill="#009B71"/>
<path d="M129.767 20.1665H128.797V19.1964H129.767V20.1665ZM127.18 20.1665H126.21V19.1964H127.18V20.1665ZM124.593 20.1665H123.623V19.1964H124.593V20.1665ZM122.006 20.1665H121.036V19.1964H122.006V20.1665ZM119.419 20.1665H118.449V19.1964H119.419V20.1665Z" fill="#A9AFC4"/>
<path d="M119.424 21.7512H118.453V22.7213H119.424V21.7512Z" fill="#A9AFC4"/>
<path d="M119.424 26.2058H118.453V27.176H119.424V26.2058Z" fill="#A9AFC4"/>
<defs>
<linearGradient id="paint0_linear_2295_12248" x1="130.071" y1="32.3736" x2="144.973" y2="32.3736" gradientUnits="userSpaceOnUse">
<stop stop-color="#CACFDD"/>
<stop offset="1" stop-color="#EEF0F1"/>
</linearGradient>
<linearGradient id="paint1_linear_2295_12248" x1="103.19" y1="51.2006" x2="128.44" y2="51.2006" gradientUnits="userSpaceOnUse">
<stop stop-color="#CACFDD"/>
<stop offset="1" stop-color="#EEF0F1"/>
</linearGradient>
</defs>
</svg>
